<svg id="Layer_1" data-name="Layer 1" xmlns="http://www.w3.org/2000/svg" viewBox="0 0 200 200"><defs><style>.cls-1{fill:#1c0303;}</style></defs><path class="cls-1" d="M99.89,198.64C45.55,198.64,1.32,154.36,1.3,100a98.7,98.7,0,1,1,197.4.14C198.64,154.38,154.26,198.64,99.89,198.64ZM17.28,100.05a82.64,82.64,0,1,0,165.28-.48c-.1-45.52-37.49-82.61-83.07-82.41C54.27,17.36,17.14,54.8,17.28,100.05Z"/><path class="cls-1" d="M86.6,134.73a8.28,8.28,0,0,1-6.4-3c-9.5-9.77-19.07-19.49-28.53-29.3-3.86-4-3.92-8.75-.4-12.08s8.12-2.93,12.06,1.07c6.9,7,13.83,14,20.55,21.21,2.19,2.34,3.37,2.74,6,.23C105.3,98,121,83.26,136.58,68.42c3-2.87,6.22-4.44,10.22-2.64,5.66,2.53,6.26,9,1.22,13.84-10.16,9.77-20.42,19.41-30.64,29.1q-12,11.41-24,22.85C91.4,133.41,89.38,134.88,86.6,134.73Z"/></svg>