<svg id="Layer_1" data-name="Layer 1" xmlns="http://www.w3.org/2000/svg" viewBox="0 0 141.48 194.78"><path d="M172.33,70c-.17,13.73-3.18,24.87-7.56,35.67-10.58,26.07-26.27,49.05-43.51,71.05-4.31,5.5-8.82,10.85-13.33,16.19s-8.38,5.27-12.77.15c-15.54-18.12-29.89-37.1-42-57.68-8-13.59-14.94-27.67-19.39-42.89a70.63,70.63,0,1,1,137-34.17C171.62,62.78,172.6,67.3,172.33,70Zm-70.74,37.56c19,0,35-16,34.93-34.95s-15.86-34.66-34.74-34.81a34.88,34.88,0,1,0-.19,69.76Z" transform="translate(-30.89 -2.07)"/></svg>