<svg id="Layer_1" data-name="Layer 1" xmlns="http://www.w3.org/2000/svg" viewBox="0 0 200 200"><path d="M99.94,171.51c-11.57,0-23.14.05-34.71,0A34.28,34.28,0,0,1,30.61,137q-.11-34.86,0-69.73A34.24,34.24,0,0,1,65,32.8q35-.11,70,0A34.22,34.22,0,0,1,169.29,67q.14,35.16,0,70.32A34.26,34.26,0,0,1,135,171.5C123.28,171.56,111.61,171.51,99.94,171.51ZM100.16,45H65.74C52.51,45.2,42.91,54.72,42.87,68q-.12,34.13,0,68.24c0,13.43,9.62,23,23.06,23q34,.09,67.93,0c13.63,0,23.15-9.57,23.18-23.22q.09-33.81,0-67.63c0-13.83-9.54-23.28-23.37-23.34C122.51,45,111.33,45,100.16,45Z"/><path d="M135,102.29A35,35,0,1,1,100.1,67.1,35.17,35.17,0,0,1,135,102.29ZM77.54,102c0,12.76,9.48,22.48,22.1,22.57,12.93.08,22.68-9.46,22.72-22.25s-9.47-22.49-22.1-22.57C87.33,79.65,77.59,89.19,77.54,102Z"/><path d="M146.43,64.52a9.14,9.14,0,0,1-9,9.26,9.52,9.52,0,0,1-9.11-9,9.19,9.19,0,0,1,9.11-9.14A8.85,8.85,0,0,1,146.43,64.52Z"/></svg>