<svg id="Layer_1" data-name="Layer 1" xmlns="http://www.w3.org/2000/svg" viewBox="0 0 200 200"><path d="M107,91c11.26-14.19,25.32-16,40.85-11.58,10.79,3.09,16.07,11.34,18.56,21.72A78.7,78.7,0,0,1,168.37,119c.12,16,.06,32.09,0,48.13,0,4.29-.26,4.56-4.52,4.58-6.91,0-13.82-.11-20.72.06-3.18.07-4.31-1.07-4.28-4.26.11-14.37.06-28.74,0-43.12a46.92,46.92,0,0,0-.8-10.63c-1.53-6.57-5.27-10.21-11.16-10.67-8.46-.64-14,2.12-16.51,8.44a30.31,30.31,0,0,0-2.1,11.42q0,21.9,0,43.78c0,5.1,0,5.11-5.25,5.11-6.79,0-13.59-.06-20.38,0-2.54,0-3.54-.86-3.54-3.5q.1-42.78,0-85.56c0-2.43.86-3.42,3.29-3.4q10.69.1,21.39,0c2.51,0,3.33,1.14,3.22,3.49S107,87.82,107,91Z"/><path d="M62.16,125.92c0,13.92-.07,27.83.05,41.75,0,3.15-1,4.35-4.2,4.27-7.12-.18-14.25-.13-21.38,0-2.75,0-3.66-1-3.65-3.73q.1-42.42,0-84.84c0-2.88.9-4,3.82-3.92,7.12.12,14.25.14,21.37,0,3.06-.07,4.07,1,4.05,4.08C62.09,97.64,62.16,111.78,62.16,125.92Z"/><path d="M47.42,67.74A16.89,16.89,0,0,1,30.56,50.68,17.35,17.35,0,0,1,47.31,34a16.86,16.86,0,1,1,.11,33.72Z"/></svg>