<svg id="Layer_1" data-name="Layer 1" xmlns="http://www.w3.org/2000/svg" viewBox="0 0 200 200"><path d="M176.25,142c-.4,1.26-.81,2.51-1.33,4.14L129.69,100c14.72-15,29.88-30.45,45.23-46.1L176.25,58Z"/><path d="M31.6,47.27a50.78,50.78,0,0,1,6.55-.83q54.8-.09,109.59,0c4.91,0,9.83-.09,14.74,0a51.29,51.29,0,0,1,6.31,1c-.64.71-.92,1-1.22,1.35Q138.8,77.38,110,106c-4.12,4.1-9,5.63-14.54,3.58a15.27,15.27,0,0,1-5.3-3.43q-29.07-28.74-58-57.62c-.2-.2-.39-.43-.59-.64Z"/><path d="M32.08,152.55,77.56,106.2c2.19,2.21,4.19,4.19,6.16,6.2a22.16,22.16,0,0,0,10.92,6.32c8.25,1.87,15.4-.26,21.44-6.14,2.06-2,4-4.09,6.21-6.3l45.58,46.49a37.67,37.67,0,0,1-5.65.81c-10.27.09-20.54,0-30.81,0q-46.68,0-93.35,0A14,14,0,0,1,32.08,152.55Z"/><path d="M70.39,100,25.24,146.08a13.12,13.12,0,0,1-1.48-6.44V103.9c0-14.44,0-28.89,0-43.33a46.15,46.15,0,0,1,.88-6.35l.64-.15Z"/></svg>