<svg id="Layer_1" data-name="Layer 1" xmlns="http://www.w3.org/2000/svg" viewBox="0 0 200 200"><path d="M181,53.9c-.85,2.31-1.39,4.78-2.59,6.88a17.91,17.91,0,0,1-21.32,8c-8-2.75-13.23-10.75-12.32-18.81a18.14,18.14,0,0,1,35.95-1.38,5.41,5.41,0,0,0,.28.83Z"/><path d="M63.09,119.67c4.59,0,9,0,13.4,0a17.87,17.87,0,0,1,4.56.5c6.19,1.75,9.92,6.73,10,13.37.06,12.51,0,25,0,37.53,0,3.07-1.85,4.87-5,4.88q-8.19,0-16.38,0c-3.1,0-4.86-1.81-4.87-4.94,0-7.8,0-15.59,0-23.38v-1.93c-.61,0-1.14-.07-1.66-.07-5.66,0-11.31,0-17,0a15.6,15.6,0,0,1-15.87-15.71c-.09-13-.11-26,0-39,.07-7,3.54-12.18,10-14.9s12.48-1.56,17.67,3.17a15.14,15.14,0,0,1,5.11,11.34c.08,9.09,0,18.17,0,27.25Z"/><path d="M144.74,145.65V170.5c0,3.88-1.62,5.48-5.54,5.48-5.12,0-10.23,0-15.34,0-3.65,0-5.35-1.72-5.36-5.41q0-18.24,0-36.48c0-8.77,5.66-14.4,14.44-14.42,4.41,0,8.83,0,13.49,0v-1.8c0-8.89,0-17.77,0-26.66a16.34,16.34,0,0,1,13.7-16.32c9.5-1.75,18.93,5.7,19,15.35q.24,20.17,0,40.35a15.52,15.52,0,0,1-15.15,15c-5.8.11-11.61,0-17.42,0Z"/><path d="M104.78,100.41c1.89-5.16,3.61-9.89,5.34-14.63q3.27-8.94,6.53-17.87c.79-2.17,1.36-2.46,3.57-1.78,3.17,1,6.4,1.8,9.06,4a15.83,15.83,0,0,1,6,12.87c0,7.3,0,14.59,0,21.89,0,2.54-.87,3.41-3.42,3.41q-27.11,0-54.2,0c-2.37,0-3.4-.84-3.4-3,0-7.89-.05-15.78.08-23.67.12-6.68,4.82-12.33,11.27-14.36,1.28-.4,2.56-.8,3.84-1.18,2-.62,2.66-.32,3.38,1.66q5.64,15.42,11.26,30.86Z"/><path d="M46.55,69.72A18.14,18.14,0,1,1,64.82,51.65,18.15,18.15,0,0,1,46.55,69.72Z"/><path d="M104.7,60.46a18.15,18.15,0,1,1,18.21-18.15A18.2,18.2,0,0,1,104.7,60.46Z"/><path d="M104.76,65.77a19.39,19.39,0,0,1,2.53,0,2,2,0,0,1,1.6,2.85.39.39,0,0,1-.06.13c-3.19,3-2.19,6.76-1.52,10.28.61,3.18-1,5.66-1.9,8.39-.07.21-.52.52-.63.46a1.72,1.72,0,0,1-.8-.73c-1.5-3.24-2.49-6.56-1.5-10.18.13-.47.07-1,.21-1.47.7-2.31-.09-4.18-1.47-6a3.14,3.14,0,0,1-.43-2.65c.28-.61,1.5-.84,2.35-1.1a5.83,5.83,0,0,1,1.62,0Z"/></svg>