<svg id="Layer_1" data-name="Layer 1" xmlns="http://www.w3.org/2000/svg" viewBox="0 0 200 200"><path d="M99.93,28.52A71.48,71.48,0,1,1,28.52,100.7,71.54,71.54,0,0,1,99.93,28.52Zm22.76,114.41a7.05,7.05,0,0,0,1.61-.62,77.65,77.65,0,0,0,17.34-14.63c1.83-2.1,1.73-3.31-.49-5a99.85,99.85,0,0,0-18.83-11.31c-2.21-1-2.92-.79-4.58,1-1.81,2-3.58,4-5.34,6a1.51,1.51,0,0,1-2,.49c-3.54-1.64-7.3-2.91-10.59-5A43.17,43.17,0,0,1,81.13,89.76a1.91,1.91,0,0,1,.63-2.33c1.92-1.65,3.83-3.31,5.69-5s2.16-2.47,1-4.94A103.28,103.28,0,0,0,77.41,59c-1.76-2.37-3-2.51-5.19-.58a76.88,76.88,0,0,0-14.5,17.25,4.22,4.22,0,0,0-.48,2.81,67,67,0,0,0,2.17,8.78c3.59,10.45,9.71,19.38,17,27.53,9.41,10.5,20.23,19.16,33.33,24.69A44.86,44.86,0,0,0,122.69,142.93Zm-19.6-80c20.6,2.26,31.78,13.52,34,33.93h5.74c.24-23.12-20-40.43-39.7-39.55Zm24.36,34c.27-15.27-14-25.4-24.33-24.18v5.79A18.65,18.65,0,0,1,121.5,96.91Z"/></svg>