<svg id="Layer_1" data-name="Layer 1" xmlns="http://www.w3.org/2000/svg" viewBox="0 0 200 200"><path d="M23.73,172.67V27.33C24.92,24.75,27,24,29.73,24q46,.1,92,0c3.68,0,5.34,1.68,5.34,5.38V58.54a5.66,5.66,0,0,1-.63.09,39.18,39.18,0,0,0-24.78,9.5,3.31,3.31,0,0,1-2,.57q-26.2,0-52.41,0c-.5,0-1,0-1.49,0a4.55,4.55,0,0,0-4.12,3.86,4.4,4.4,0,0,0,2.89,4.69,8.31,8.31,0,0,0,2.63.35q22.41,0,44.82,0H93.5c-1.09,2.61-2.19,5-3.11,7.53a1.76,1.76,0,0,1-2,1.44c-10.47,0-20.94,0-31.41,0-3.63,0-7.25,0-10.87,0A4.46,4.46,0,0,0,41.61,91,4.57,4.57,0,0,0,46,95.52c.49,0,1,0,1.49,0H88.22c.21,3,.41,5.94.62,8.94H47.31c-.44,0-.89,0-1.34,0a4.53,4.53,0,0,0-4.34,4,4.39,4.39,0,0,0,3.25,4.72,8.77,8.77,0,0,0,2.35.24q21.51,0,43,0a2.14,2.14,0,0,1,2.27,1.33A38,38,0,0,0,118.14,135c2.86.7,5.84.9,8.94,1.36v33.9c0,4.11-1.56,5.69-5.63,5.69q-45.85,0-91.72,0C27,176,24.92,175.24,23.73,172.67ZM66.91,50.86c-6.79,0-13.58,0-20.37,0a6.43,6.43,0,0,0-2.94.79,4.19,4.19,0,0,0-1.83,4.78,4.48,4.48,0,0,0,4.7,3.33H87.08c3.12,0,5.17-1.8,5.15-4.51S90.17,50.86,87,50.86Zm0,80.41H87.46a4.41,4.41,0,0,0,4.39-2.72c1.37-3.06-.92-6.2-4.5-6.21q-20.3,0-40.6,0c-3.12,0-5.18,1.82-5.14,4.52s2.06,4.41,5.1,4.41Zm24,8.94c-4.91,0-9.82,0-14.72,0a4.5,4.5,0,0,0-4.8,4.41c0,2.6,2,4.51,4.84,4.52q14.51,0,29,0c2.87,0,4.88-1.88,4.87-4.49s-2-4.43-4.92-4.44C100.42,140.2,95.67,140.21,90.91,140.21Z"/><path d="M145.76,120.76l4.64,8.08-7.73,4.43-4.7-8.08c-10,3.42-19.44,2.51-28.15-3.59a28.88,28.88,0,0,1-11.51-16.5A29.81,29.81,0,0,1,150.58,79,30.17,30.17,0,0,1,145.76,120.76Zm-22.28-20.7c-1.35-1.43-2.49-2.73-3.74-3.93a4.45,4.45,0,1,0-6.28,6.3q3.41,3.54,6.94,6.95a4.32,4.32,0,0,0,6.28,0q7.11-7,14.1-14.1a4.42,4.42,0,0,0,.34-5.85c-1.7-2.19-4.76-2.3-6.91-.18C130.69,92.78,127.21,96.31,123.48,100.06Z"/><path d="M156.17,137.47a7.94,7.94,0,0,1,6.64,4.05c4.23,7.11,8.4,14.25,12.41,21.49a8.88,8.88,0,0,1-15.37,8.86c-4.26-7.09-8.45-14.23-12.41-21.5C144.26,144.54,148.68,137.51,156.17,137.47Z"/></svg>