<svg id="Layer_1" data-name="Layer 1" xmlns="http://www.w3.org/2000/svg" viewBox="0 0 200 200"><path d="M68.43,176.26c-3.57-1.2-4.83-3.72-4.81-7.42.09-18.61,0-37.23.07-55.84a3.46,3.46,0,0,0-1.14-2.71Q46.71,94.53,31,78.71C27.8,75.56,27.08,71,29.46,67.56c3.21-4.69,6.93-7,11.88-5.34a10.85,10.85,0,0,1,4,2.64c5.72,5.58,11.34,11.27,17,16.92.34.34.7.65,1.29,1.21V42.28c0-4.46,2.34-6.82,6.77-6.84,2.67,0,5.34,0,8.14,0-.14-3.77.8-7,3.73-9.4a9.88,9.88,0,0,1,6.61-2.28c5.71.12,8.89,3.81,9.9,11.59h8.91c-.16-3.81.87-7.21,4.11-9.61a9.67,9.67,0,0,1,6.41-2,9.87,9.87,0,0,1,7.34,3.72c1.88,2.25,2.36,4.95,2.24,7.86h9.07c-.19-4,.94-7.42,4.35-9.8a9.77,9.77,0,0,1,6.62-1.76c5.5.49,8.61,4.37,9.18,11.65h2.87c1.84,0,3.67,0,5.51,0,4.07.05,6.47,2.44,6.47,6.51q0,22.26,0,44.53c0,27.34,0,54.69.06,82,0,3.71-1.06,6.35-4.6,7.74h-14.6c-.48-.41-1.21-.74-1.38-1.26a5.48,5.48,0,0,1-.3-2.92,2.65,2.65,0,0,1,2.82-1.78h12V41.49H157c.21,3.73-.76,6.95-3.67,9.36a9.67,9.67,0,0,1-6.61,2.29c-5.85-.17-9.15-4.07-9.85-11.62h-9c.18,3.81-.83,7.16-4,9.57a9.66,9.66,0,0,1-6.4,2c-5.78-.24-8.79-3.82-9.82-11.64H98.71c.15,4-.94,7.46-4.34,9.84A9.53,9.53,0,0,1,88,53.12c-5.76-.45-8.68-4-9.56-11.63H69.69c0,.53-.07,1-.07,1.5q0,22.34,0,44.67a3.6,3.6,0,0,0,1,2.29C80.4,99.82,90.25,109.62,100,119.5a7.94,7.94,0,0,1,1.8,3.28c.8,2.81,1.41,5.68,2,8.54a1.11,1.11,0,0,0,1.31,1c8.19,0,16.38.12,24.57-.07a15.71,15.71,0,0,0,15.11-11.91c.07-.28.1-.57.17-1-3.34,0-6.6.07-9.86,0a32.61,32.61,0,0,1-6.64-.57A14.35,14.35,0,0,1,117.59,105a39.6,39.6,0,0,1,.17-7A14.34,14.34,0,0,1,131.5,85.64a33.53,33.53,0,0,1,8.44.39,14.24,14.24,0,0,1,11.34,13.85c.1,5.51.07,11,0,16.53a21.8,21.8,0,0,1-21.88,21.87c-9.23.07-18.47.11-27.7-.16-3.06-.09-6.08-1.38-9.16-1.81a15.16,15.16,0,0,1-9.32-5.21c-4.28-4.62-8.86-9-13.49-13.6v52.8h1.73q27.12,0,54.22,0a3.6,3.6,0,0,1,3.2,1.19c1.23,1.6.69,3.36-1.47,4.78Zm29.3-44.95c-.48-2.11-.81-4-1.36-5.84a6.72,6.72,0,0,0-1.53-2.75q-15.06-15.18-30.2-30.26C59.41,87.24,54.19,82,49.12,76.92l-5.77,5.73s.16.21.3.35l45.93,45.91a3,3,0,0,0,1.21.81C93,130.27,95.23,130.75,97.73,131.31Zm47.52-18c0-4.9.25-9.76-.09-14.58-.26-3.79-3.68-6.76-7.49-7.1a35.78,35.78,0,0,0-6.38,0,8.55,8.55,0,0,0-7.76,8.35c0,1.54,0,3.07,0,4.61.07,4.52,3.1,8.3,7.59,8.65C135.78,113.58,140.5,113.31,145.25,113.31ZM92.7,38.47h0c0-1.59.07-3.18,0-4.76a4,4,0,0,0-4.12-4,4.09,4.09,0,0,0-4,4.17c-.06,3,0,6,0,9.07a4.12,4.12,0,0,0,4.08,4.24,4.07,4.07,0,0,0,4-4.11C92.76,41.55,92.7,40,92.7,38.47Zm21-.13c0,1.54,0,3.08,0,4.61a4.12,4.12,0,0,0,4.07,4.24,4,4,0,0,0,4-4.12q.09-4.6,0-9.22a4,4,0,0,0-4-4.14,4.09,4.09,0,0,0-4.12,4.17C113.69,35.37,113.72,36.86,113.72,38.34Zm29.17,0c0,1.59,0,3.18,0,4.76a4,4,0,1,0,8.07,0q.08-4.68,0-9.36a4,4,0,0,0-8.06,0C142.85,35.25,142.89,36.79,142.89,38.32ZM38.74,78.15l5.79-5.82c-1.27-1.25-2.56-2.6-4-3.86a2.9,2.9,0,0,0-4,0A19.51,19.51,0,0,0,35,70.08a2.93,2.93,0,0,0,0,4.16C36.15,75.59,37.47,76.86,38.74,78.15Z"/></svg>