<svg id="Layer_1" data-name="Layer 1" xmlns="http://www.w3.org/2000/svg" viewBox="0 0 200 200"><path d="M113.37,23.8c.53.23,1.07.44,1.59.7A7.83,7.83,0,0,1,119.63,32c0,6,0,11.91,0,17.87a2.7,2.7,0,0,0,1.14,2.54,53.34,53.34,0,0,0,5.06,3.35,7.27,7.27,0,0,0,6.87,0c.67-.33,1.35-.62,2-.91,1.36-.58,2.82-1.74,4.07-1.56S141,55,142.06,56l.59.48c.85-.87,1.72-1.67,2.48-2.57a1.57,1.57,0,0,1,2.05-.51,42.12,42.12,0,0,1,13.67,9.08c6.7,6.45,9.58,14.32,8.23,23.6a41,41,0,0,1-5.29,14.59c-1.66,2.88-4.72,3.33-8.31,1.31v1.8q0,23.76,0,47.51a14.85,14.85,0,0,1-.14,2.67,6.34,6.34,0,0,1-12.49-.34,19.26,19.26,0,0,1-.14-2.52q0-20.55,0-41.11c0-.59-.11-1.19-.16-1.78l-.53,0a11.61,11.61,0,0,0-.22,1.66q0,16.83,0,33.65c0,3.23,0,6.46-.09,9.68a6.09,6.09,0,0,1-4.43,5.56,6,6,0,0,1-6.86-2.26,8.52,8.52,0,0,1-1.34-4.28c-.08-17.22,0-34.45,0-51.67,0-2-.69-4-.71-6-.08-8.44,0-16.88,0-25.32V67.71l-8.59-2.49c0,.31,0,.82,0,1.32q0,13.41,0,26.81c0,5.59-3.18,8.78-8.77,8.78q-33.21,0-66.43,0c-5.66,0-8.82-3.19-8.82-8.89,0-19.66.09-39.32-.07-59,0-5,1.31-8.72,6.32-10.46ZM114,44.49l.44-.13c0-4,0-8,0-12,0-2.35-.91-3.24-3.26-3.24q-33.53,0-67,0c-2.28,0-3.2.91-3.2,3.15q0,30.75,0,61.51c0,2.18.92,3.11,3.07,3.11q33.66,0,67.33,0c2.14,0,3.08-.93,3.09-3.1q0-15.78,0-31.57a2.63,2.63,0,0,0-.68-1.52c-2.76-3.25-5.72-6.33-8.3-9.71a50.78,50.78,0,0,1-4.63-7.79,5.27,5.27,0,0,1,3.51-7.62,5.43,5.43,0,0,1,6,2.58C111.51,40.22,112.72,42.36,114,44.49Zm28.61,39.64c.84-1.14,1.5-2.18,2.3-3.1a3.68,3.68,0,0,0,.84-3.4c-.63-3.61-1.11-7.25-1.65-10.87-.43-2.91-.88-5.81-1.36-9-.25.42-.35.52-.37.64-1,6.66-2,13.32-3,20a2.45,2.45,0,0,0,.19,1.55C140.44,81.31,141.47,82.63,142.56,84.13ZM157,75.48V89.24C158.74,84.65,159.24,80.07,157,75.48Z"/><path d="M156.58,160.68V176.2h-126V160.68Z"/><path d="M99,157.11H87.85V150.4c-1.52,2-1.62,4.26-1.58,6.67h-17l-1.13-6.77-.58,0v6.74H56.42a5.53,5.53,0,0,1,.66-1.08c1.73-1.61,1.7-3.51,1.3-5.68-.77-4.2-1.29-8.43-1.92-12.65a1.06,1.06,0,0,0-.48-.78c-.41,2.66-.83,5.31-1.22,8-.35,2.31-.57,4.64-1,6.91a3.51,3.51,0,0,0,.89,3.38A20.69,20.69,0,0,1,56,157.1H44.91v-6.87c-1.54,2.06-1.66,4.4-1.56,6.86H34.82A18.37,18.37,0,0,1,36.11,148c2.18-5.46,6.3-9.19,11.08-12.29,1.57-1,3.31-1.77,5-2.67a1.58,1.58,0,0,1,2.29.53c.46.64,1,1.19,1.86,2.12.63-.82,1.13-1.43,1.6-2.07a1.63,1.63,0,0,1,2.29-.57c7,3.28,12.89,7.64,16,15a51.24,51.24,0,0,1,1.57,5.24,20.77,20.77,0,0,1,4.72-11,36.63,36.63,0,0,1,11.88-9c1.41-.72,2.59-.73,3.53.75a12.78,12.78,0,0,0,1.37,1.43,17.64,17.64,0,0,1,1.91-2.09,2,2,0,0,1,1.63-.44c8.59,4,15.7,9.37,17.55,19.44a37.11,37.11,0,0,1,.27,4.69h-8.68c.06-2.44,0-4.79-1.51-7.26v7.26h-11a7.82,7.82,0,0,1,.78-1.2,5.21,5.21,0,0,0,1.33-5c-.86-4.68-1.48-9.4-2.45-14.15-.18,1-.37,2-.53,3-.57,3.78-1,7.57-1.74,11.32a4.6,4.6,0,0,0,1.11,4.47A14.62,14.62,0,0,1,99,157.11Z"/><path d="M142.55,52.16A13.9,13.9,0,1,1,156.5,38.28,14,14,0,0,1,142.55,52.16Z"/><path d="M110.12,120.9a11,11,0,1,1-22,0,11,11,0,0,1,22,0Z"/><path d="M56.12,132A11,11,0,1,1,67.17,121,11,11,0,0,1,56.12,132Z"/><path d="M88.08,45.9c0,.35,0,.53-.06.64-1.92,3,1.21,3.85,2.45,5.47.13.18.81.09,1.16-.06,1.29-.56,2.83-1.46,3.83-.16a12.92,12.92,0,0,1,2.25,5c.28,1.25-1,2.05-2.21,2.45-1,.35-1.44.94-1.18,2a1.32,1.32,0,0,1,.05.59c-.35,2.07.26,3.52,2.51,3.93a1.08,1.08,0,0,1,.5.32c1.85,2,.34,3.83-.33,5.64-.55,1.47-1.72,1.92-3.27,1.55a3.65,3.65,0,0,1-1-.33,1.43,1.43,0,0,0-2.2.67,1.39,1.39,0,0,1-.37.46c-1.72,1.17-2,2.48-1,4.45.82,1.75-.25,2.82-3.53,4.2-1.75.75-3.2.52-3.82-1-.74-1.86-1.78-2.14-3.67-2-1.71.11-2.65.39-3.18,2.14-.47,1.56-1.77,2-3.35,1.59-.62-.17-1.22-.41-1.82-.63-2.63-1-3.16-2-2.14-4.67.37-.94.38-1.59-.57-2.08a.84.84,0,0,1-.23-.18c-1.37-1.71-2.88-2.75-5-1.2a.54.54,0,0,1-.29.06c-2.69.05-3-2.27-3.78-4-.71-1.47-.4-3,.92-3.46,2.21-.8,2.32-2.24,2.22-4.22-.07-1.37-.31-2.1-1.69-2.55-2.11-.7-2.62-2-1.9-4.07.17-.51.37-1,.57-1.53.89-2.31,2.07-2.9,4.39-2,1.13.46,1.87.33,2.44-.73a.38.38,0,0,1,.09-.12c1.64-1.3,2.34-2.61,1.25-4.83-.85-1.72.45-2.91,3.8-4.18,1.61-.61,3-.29,3.63,1.24.68,1.79,1.67,2.35,3.44,1.84a2.76,2.76,0,0,1,1.18,0c1.06.21,1.53-.29,1.79-1.25.38-1.46,1.25-2.76,2.84-2.52,1.9.28,4,.58,5.12,2.55A2.88,2.88,0,0,1,88.08,45.9Zm0,17.26A10.43,10.43,0,1,0,77.46,73.4,10.45,10.45,0,0,0,88.05,63.16Z"/></svg>